<svg width="24" height="25" viewBox="0 0 24 25" fill="none" xmlns="http://www.w3.org/2000/svg">
<path d="M4 10.5L3.29289 11.2071L2.58579 10.5L3.29289 9.79289L4 10.5ZM21 18.5C21 19.0523 20.5523 19.5 20 19.5C19.4477 19.5 19 19.0523 19 18.5L21 18.5ZM8.29289 16.2071L3.29289 11.2071L4.70711 9.79289L9.70711 14.7929L8.29289 16.2071ZM3.29289 9.79289L8.29289 4.79289L9.70711 6.20711L4.70711 11.2071L3.29289 9.79289ZM4 9.5L14 9.5L14 11.5L4 11.5L4 9.5ZM21 16.5L21 18.5L19 18.5L19 16.5L21 16.5ZM14 9.5C17.866 9.5 21 12.634 21 16.5L19 16.5C19 13.7386 16.7614 11.5 14 11.5L14 9.5Z" fill="#33363F"/>
</svg>
