<svg width="24" height="25" viewBox="0 0 24 25" fill="none" xmlns="http://www.w3.org/2000/svg">
<path fill-rule="evenodd" clip-rule="evenodd" d="M20.1599 12.4999C20.1599 17.2716 16.2916 21.1399 11.5199 21.1399C6.74814 21.1399 2.87988 17.2716 2.87988 12.4999C2.87988 7.72812 6.74814 3.85986 11.5199 3.85986C16.2916 3.85986 20.1599 7.72812 20.1599 12.4999ZM11.52 18.26C10.9898 18.26 10.56 17.8302 10.56 17.3V13.46H6.72C6.1898 13.46 5.76 13.0302 5.76 12.5C5.76 11.9698 6.1898 11.54 6.72 11.54H10.56V7.69998C10.56 7.16979 10.9898 6.73998 11.52 6.73998C12.0502 6.73998 12.48 7.16979 12.48 7.69998V11.54H16.32C16.8502 11.54 17.28 11.9698 17.28 12.5C17.28 13.0302 16.8502 13.46 16.32 13.46H12.48V17.3C12.48 17.8302 12.0502 18.26 11.52 18.26Z" fill="#222222"/>
</svg>
