<svg width="148" height="23" viewBox="0 0 148 23" fill="none" xmlns="http://www.w3.org/2000/svg">
<path d="M94 4.63507C94 4.90296 94.2172 5.12012 94.485 5.12012L108.875 5.12012C109.143 5.12012 109.36 4.90296 109.36 4.63507V0.485161C109.36 0.217279 109.143 0.000117302 108.875 0.000117302L101.68 0.000117302L94.485 0.000117302C94.2172 0.000117302 94 0.217279 94 0.485161V4.63507Z" fill="url(#paint0_linear_381_2431)"/>
<path d="M94 12.9549C94 13.2228 94.2172 13.4399 94.485 13.4399L108.875 13.4399C109.143 13.4399 109.36 13.2228 109.36 12.9549V8.80499C109.36 8.5371 109.143 8.31994 108.875 8.31994L101.68 8.31994H94.485C94.2172 8.31994 94 8.5371 94 8.80499V12.9549Z" fill="url(#paint1_linear_381_2431)"/>
<path d="M94 21.275C94 21.5428 94.2172 21.76 94.485 21.76H108.875C109.143 21.76 109.36 21.5428 109.36 21.275V17.1251C109.36 16.8572 109.143 16.64 108.875 16.64H101.68H94.485C94.2172 16.64 94 16.8572 94 17.1251V21.275Z" fill="url(#paint2_linear_381_2431)"/>
<path d="M2.36442 0.566713H9.88756C11.9961 0.566713 13.6031 1.07849 14.7085 2.10205C15.8344 3.12561 16.3974 4.51764 16.3974 6.27816C16.3974 7.50643 16.0903 8.48905 15.4762 9.22601C14.8825 9.9425 14.0227 10.4645 12.8968 10.792V10.9763C14.2274 11.3038 15.251 11.877 15.9675 12.6959C16.7045 13.5147 17.0729 14.6509 17.0729 16.1043C17.0729 17.9058 16.4997 19.3388 15.3534 20.4033C14.2274 21.4678 12.6409 22 10.5938 22H2.36442V0.566713ZM9.18131 18.7758C10.2867 18.7758 11.0954 18.5916 11.6071 18.2231C12.1189 17.8546 12.3748 17.179 12.3748 16.1964V15.3059C12.3748 14.3233 12.1189 13.6478 11.6071 13.2793C11.0954 12.9108 10.2867 12.7266 9.18131 12.7266H6.8476V18.7758H9.18131ZM8.59788 9.6559C9.68285 9.6559 10.471 9.4819 10.9623 9.13389C11.4536 8.76541 11.6993 8.11033 11.6993 7.16866V6.24746C11.6993 5.30578 11.4536 4.66094 10.9623 4.31293C10.471 3.96492 9.68285 3.79092 8.59788 3.79092H6.8476V9.6559H8.59788ZM27.624 22.3685C24.7581 22.3685 22.6393 21.3961 21.2678 19.4513C19.9167 17.5066 19.2411 14.7839 19.2411 11.2834C19.2411 7.78279 19.9167 5.06013 21.2678 3.11537C22.6393 1.17061 24.7581 0.198231 27.624 0.198231C30.49 0.198231 32.5985 1.17061 33.9496 3.11537C35.3212 5.06013 36.007 7.78279 36.007 11.2834C36.007 14.7839 35.3212 17.5066 33.9496 19.4513C32.5985 21.3961 30.49 22.3685 27.624 22.3685ZM27.624 18.653C28.9342 18.653 29.8349 18.1719 30.3262 17.2098C30.838 16.2271 31.0939 14.8658 31.0939 13.1258V9.41025C31.0939 7.69067 30.838 6.34981 30.3262 5.38767C29.8349 4.40505 28.9342 3.91374 27.624 3.91374C26.3139 3.91374 25.4029 4.40505 24.8912 5.38767C24.3998 6.34981 24.1542 7.69067 24.1542 9.41025V13.1565C24.1542 14.876 24.3998 16.2271 24.8912 17.2098C25.4029 18.1719 26.3139 18.653 27.624 18.653ZM45.6983 22.3685C43.8968 22.3685 42.3308 22.0716 41.0002 21.478C39.6696 20.8843 38.5948 20.0757 37.776 19.0522L40.4475 16.1043C41.2254 16.9641 42.0749 17.5987 42.9961 18.0081C43.9378 18.4175 44.8897 18.6223 45.8518 18.6223C46.9573 18.6223 47.7966 18.3766 48.3698 17.8853C48.943 17.394 49.2296 16.6877 49.2296 15.7665C49.2296 15.0091 49.0044 14.4359 48.554 14.047C48.1241 13.658 47.3872 13.3816 46.3431 13.2179L44.1016 12.8494C42.1773 12.5219 40.7852 11.8156 39.9254 10.7306C39.0657 9.62519 38.6358 8.28433 38.6358 6.70806C38.6358 4.64047 39.3113 3.04372 40.6624 1.91781C42.0135 0.771423 43.9071 0.198231 46.3431 0.198231C48.0013 0.198231 49.4445 0.45412 50.6728 0.965899C51.9011 1.47768 52.8939 2.1737 53.6513 3.05396L51.0413 5.97109C50.4681 5.33649 49.7925 4.84518 49.0146 4.49717C48.2367 4.12869 47.3565 3.94445 46.3739 3.94445C44.3063 3.94445 43.2725 4.794 43.2725 6.49311C43.2725 7.23007 43.4977 7.78279 43.948 8.15127C44.4189 8.51975 45.1763 8.79611 46.2203 8.98035L48.4619 9.37954C50.202 9.68661 51.5428 10.3417 52.4845 11.3448C53.4262 12.3479 53.897 13.699 53.897 15.3981C53.897 16.4011 53.723 17.3326 53.375 18.1924C53.027 19.0317 52.505 19.7686 51.8089 20.4033C51.1129 21.0174 50.2531 21.4985 49.2296 21.8465C48.2265 22.1945 47.0494 22.3685 45.6983 22.3685ZM64.1103 22.3685C62.3089 22.3685 60.7428 22.0716 59.4122 21.478C58.0816 20.8843 57.0069 20.0757 56.188 19.0522L58.8595 16.1043C59.6374 16.9641 60.4869 17.5987 61.4081 18.0081C62.3498 18.4175 63.3017 18.6223 64.2639 18.6223C65.3693 18.6223 66.2086 18.3766 66.7818 17.8853C67.355 17.394 67.6416 16.6877 67.6416 15.7665C67.6416 15.0091 67.4164 14.4359 66.9661 14.047C66.5362 13.658 65.7992 13.3816 64.7552 13.2179L62.5136 12.8494C60.5893 12.5219 59.1973 11.8156 58.3375 10.7306C57.4777 9.62519 57.0478 8.28433 57.0478 6.70806C57.0478 4.64047 57.7233 3.04372 59.0744 1.91781C60.4255 0.771423 62.3191 0.198231 64.7552 0.198231C66.4133 0.198231 67.8566 0.45412 69.0848 0.965899C70.3131 1.47768 71.3059 2.1737 72.0634 3.05396L69.4533 5.97109C68.8801 5.33649 68.2046 4.84518 67.4267 4.49717C66.6488 4.12869 65.7685 3.94445 64.7859 3.94445C62.7183 3.94445 61.6845 4.794 61.6845 6.49311C61.6845 7.23007 61.9097 7.78279 62.3601 8.15127C62.8309 8.51975 63.5883 8.79611 64.6324 8.98035L66.8739 9.37954C68.614 9.68661 69.9549 10.3417 70.8965 11.3448C71.8382 12.3479 72.309 13.699 72.309 15.3981C72.309 16.4011 72.135 17.3326 71.787 18.1924C71.439 19.0317 70.917 19.7686 70.221 20.4033C69.525 21.0174 68.6652 21.4985 67.6416 21.8465C66.6385 22.1945 65.4614 22.3685 64.1103 22.3685ZM76.4732 22V0.566713H81.1099V18.2231H90.3219V22H76.4732ZM119.346 22.3685C117.545 22.3685 115.979 22.0716 114.648 21.478C113.318 20.8843 112.243 20.0757 111.424 19.0522L114.096 16.1043C114.873 16.9641 115.723 17.5987 116.644 18.0081C117.586 18.4175 118.538 18.6223 119.5 18.6223C120.605 18.6223 121.445 18.3766 122.018 17.8853C122.591 17.394 122.878 16.6877 122.878 15.7665C122.878 15.0091 122.653 14.4359 122.202 14.047C121.772 13.658 121.035 13.3816 119.991 13.2179L117.75 12.8494C115.825 12.5219 114.433 11.8156 113.574 10.7306C112.714 9.62519 112.284 8.28433 112.284 6.70806C112.284 4.64047 112.959 3.04372 114.311 1.91781C115.662 0.771423 117.555 0.198231 119.991 0.198231C121.649 0.198231 123.093 0.45412 124.321 0.965899C125.549 1.47768 126.542 2.1737 127.299 3.05396L124.689 5.97109C124.116 5.33649 123.441 4.84518 122.663 4.49717C121.885 4.12869 121.005 3.94445 120.022 3.94445C117.954 3.94445 116.921 4.794 116.921 6.49311C116.921 7.23007 117.146 7.78279 117.596 8.15127C118.067 8.51975 118.824 8.79611 119.868 8.98035L122.11 9.37954C123.85 9.68661 125.191 10.3417 126.133 11.3448C127.074 12.3479 127.545 13.699 127.545 15.3981C127.545 16.4011 127.371 17.3326 127.023 18.1924C126.675 19.0317 126.153 19.7686 125.457 20.4033C124.761 21.0174 123.901 21.4985 122.878 21.8465C121.875 22.1945 120.698 22.3685 119.346 22.3685ZM137.758 22.3685C135.957 22.3685 134.391 22.0716 133.06 21.478C131.73 20.8843 130.655 20.0757 129.836 19.0522L132.508 16.1043C133.286 16.9641 134.135 17.5987 135.056 18.0081C135.998 18.4175 136.95 18.6223 137.912 18.6223C139.017 18.6223 139.857 18.3766 140.43 17.8853C141.003 17.394 141.29 16.6877 141.29 15.7665C141.29 15.0091 141.065 14.4359 140.614 14.047C140.184 13.658 139.447 13.3816 138.403 13.2179L136.162 12.8494C134.237 12.5219 132.845 11.8156 131.986 10.7306C131.126 9.62519 130.696 8.28433 130.696 6.70806C130.696 4.64047 131.371 3.04372 132.723 1.91781C134.074 0.771423 135.967 0.198231 138.403 0.198231C140.061 0.198231 141.505 0.45412 142.733 0.965899C143.961 1.47768 144.954 2.1737 145.712 3.05396L143.101 5.97109C142.528 5.33649 141.853 4.84518 141.075 4.49717C140.297 4.12869 139.417 3.94445 138.434 3.94445C136.366 3.94445 135.333 4.794 135.333 6.49311C135.333 7.23007 135.558 7.78279 136.008 8.15127C136.479 8.51975 137.236 8.79611 138.28 8.98035L140.522 9.37954C142.262 9.68661 143.603 10.3417 144.545 11.3448C145.486 12.3479 145.957 13.699 145.957 15.3981C145.957 16.4011 145.783 17.3326 145.435 18.1924C145.087 19.0317 144.565 19.7686 143.869 20.4033C143.173 21.0174 142.313 21.4985 141.29 21.8465C140.287 22.1945 139.11 22.3685 137.758 22.3685Z" fill="black"/>
<defs>
<linearGradient id="paint0_linear_381_2431" x1="101.68" y1="5.12012" x2="101.68" y2="0.000117302" gradientUnits="userSpaceOnUse">
<stop stop-color="#274AFF"/>
<stop offset="1" stop-color="#274AFF" stop-opacity="0.76"/>
</linearGradient>
<linearGradient id="paint1_linear_381_2431" x1="101.68" y1="13.4399" x2="101.68" y2="8.31994" gradientUnits="userSpaceOnUse">
<stop stop-color="#274AFF"/>
<stop offset="1" stop-color="#274AFF" stop-opacity="0.76"/>
</linearGradient>
<linearGradient id="paint2_linear_381_2431" x1="101.68" y1="21.76" x2="101.68" y2="16.64" gradientUnits="userSpaceOnUse">
<stop stop-color="#274AFF"/>
<stop offset="1" stop-color="#274AFF" stop-opacity="0.76"/>
</linearGradient>
</defs>
</svg>
